<mxfile host="app.diagrams.net" agent="Mozilla/5.0 (Windows NT 10.0; Win64; x64) AppleWebKit/537.36 (KHTML, like Gecko) Chrome/134.0.0.0 Safari/537.36" version="26.1.3">
  <diagram name="Страница — 1" id="xI7GtqTC5N3RrTUA1rMS">
    <mxGraphModel dx="1218" dy="639" grid="1" gridSize="10" guides="1" tooltips="1" connect="1" arrows="1" fold="1" page="1" pageScale="1" pageWidth="827" pageHeight="1169" math="0" shadow="0">
      <root>
        <mxCell id="0" />
        <mxCell id="1" parent="0" />
        <mxCell id="PqRrqZSPvnDs5z7jwxE0-19" value="Item" style="swimlane;fontStyle=1;align=center;verticalAlign=top;childLayout=stackLayout;horizontal=1;startSize=36.8;horizontalStack=0;resizeParent=1;resizeParentMax=0;resizeLast=0;collapsible=0;marginBottom=0;" parent="1" vertex="1">
          <mxGeometry x="140" y="270" width="227" height="110" as="geometry" />
        </mxCell>
        <mxCell id="PqRrqZSPvnDs5z7jwxE0-21" value="- Name: String&#xa;- Price: Real" style="text;strokeColor=none;fillColor=none;align=left;verticalAlign=top;spacingLeft=4;spacingRight=4;overflow=hidden;rotatable=0;points=[[0,0.5],[1,0.5]];portConstraint=eastwest;" parent="PqRrqZSPvnDs5z7jwxE0-19" vertex="1">
          <mxGeometry y="36.8" width="227" height="37" as="geometry" />
        </mxCell>
        <mxCell id="PqRrqZSPvnDs5z7jwxE0-22" style="line;strokeWidth=1;fillColor=none;align=left;verticalAlign=middle;spacingTop=-1;spacingLeft=3;spacingRight=3;rotatable=0;labelPosition=right;points=[];portConstraint=eastwest;strokeColor=inherit;" parent="PqRrqZSPvnDs5z7jwxE0-19" vertex="1">
          <mxGeometry y="73.8" width="227" height="8" as="geometry" />
        </mxCell>
        <mxCell id="PqRrqZSPvnDs5z7jwxE0-24" value="+ ToString(): String" style="text;strokeColor=none;fillColor=none;align=left;verticalAlign=top;spacingLeft=4;spacingRight=4;overflow=hidden;rotatable=0;points=[[0,0.5],[1,0.5]];portConstraint=eastwest;" parent="PqRrqZSPvnDs5z7jwxE0-19" vertex="1">
          <mxGeometry y="81.8" width="227" height="28.2" as="geometry" />
        </mxCell>
        <mxCell id="TfMtk5dUdcsSxjfKriaZ-7" value="&lt;&lt;interface&gt;&gt;&#xa;IDiscountStrategy" style="swimlane;fontStyle=1;align=center;verticalAlign=top;childLayout=stackLayout;horizontal=1;startSize=36.8;horizontalStack=0;resizeParent=1;resizeParentMax=0;resizeLast=0;collapsible=0;marginBottom=0;" vertex="1" parent="1">
          <mxGeometry x="470" y="540" width="280" height="75.6" as="geometry" />
        </mxCell>
        <mxCell id="TfMtk5dUdcsSxjfKriaZ-10" value="+ CalculateDiscount(totalAmount: Real): Real&#xa;+ GetDescription(): String" style="text;strokeColor=none;fillColor=none;align=left;verticalAlign=top;spacingLeft=4;spacingRight=4;overflow=hidden;rotatable=0;points=[[0,0.5],[1,0.5]];portConstraint=eastwest;" vertex="1" parent="TfMtk5dUdcsSxjfKriaZ-7">
          <mxGeometry y="36.8" width="280" height="38.8" as="geometry" />
        </mxCell>
        <mxCell id="TfMtk5dUdcsSxjfKriaZ-11" value="PromoCodeDiscountStrategy" style="swimlane;fontStyle=1;align=center;verticalAlign=top;childLayout=stackLayout;horizontal=1;startSize=36.8;horizontalStack=0;resizeParent=1;resizeParentMax=0;resizeLast=0;collapsible=0;marginBottom=0;" vertex="1" parent="1">
          <mxGeometry x="800" y="524" width="260" height="120.6" as="geometry" />
        </mxCell>
        <mxCell id="TfMtk5dUdcsSxjfKriaZ-12" value="- promoCode: String&#xa;- discountAmount: Real" style="text;strokeColor=none;fillColor=none;align=left;verticalAlign=top;spacingLeft=4;spacingRight=4;overflow=hidden;rotatable=0;points=[[0,0.5],[1,0.5]];portConstraint=eastwest;" vertex="1" parent="TfMtk5dUdcsSxjfKriaZ-11">
          <mxGeometry y="36.8" width="260" height="37" as="geometry" />
        </mxCell>
        <mxCell id="TfMtk5dUdcsSxjfKriaZ-13" style="line;strokeWidth=1;fillColor=none;align=left;verticalAlign=middle;spacingTop=-1;spacingLeft=3;spacingRight=3;rotatable=0;labelPosition=right;points=[];portConstraint=eastwest;strokeColor=inherit;" vertex="1" parent="TfMtk5dUdcsSxjfKriaZ-11">
          <mxGeometry y="73.8" width="260" height="8" as="geometry" />
        </mxCell>
        <mxCell id="TfMtk5dUdcsSxjfKriaZ-14" value="+ CalculateDiscount(totalAmount: Real): Real&#xa;+ GetDescription(): String" style="text;strokeColor=none;fillColor=none;align=left;verticalAlign=top;spacingLeft=4;spacingRight=4;overflow=hidden;rotatable=0;points=[[0,0.5],[1,0.5]];portConstraint=eastwest;" vertex="1" parent="TfMtk5dUdcsSxjfKriaZ-11">
          <mxGeometry y="81.8" width="260" height="38.8" as="geometry" />
        </mxCell>
        <mxCell id="TfMtk5dUdcsSxjfKriaZ-15" value="NoDiscountStrategy" style="swimlane;fontStyle=1;align=center;verticalAlign=top;childLayout=stackLayout;horizontal=1;startSize=36.8;horizontalStack=0;resizeParent=1;resizeParentMax=0;resizeLast=0;collapsible=0;marginBottom=0;" vertex="1" parent="1">
          <mxGeometry x="480" y="404.4" width="260" height="75.6" as="geometry" />
        </mxCell>
        <mxCell id="TfMtk5dUdcsSxjfKriaZ-18" value="+ CalculateDiscount(totalAmount: Real): Real&#xa;+ GetDescription(): String" style="text;strokeColor=none;fillColor=none;align=left;verticalAlign=top;spacingLeft=4;spacingRight=4;overflow=hidden;rotatable=0;points=[[0,0.5],[1,0.5]];portConstraint=eastwest;" vertex="1" parent="TfMtk5dUdcsSxjfKriaZ-15">
          <mxGeometry y="36.8" width="260" height="38.8" as="geometry" />
        </mxCell>
        <mxCell id="TfMtk5dUdcsSxjfKriaZ-19" value="PercentageDiscountStrategy" style="swimlane;fontStyle=1;align=center;verticalAlign=top;childLayout=stackLayout;horizontal=1;startSize=36.8;horizontalStack=0;resizeParent=1;resizeParentMax=0;resizeLast=0;collapsible=0;marginBottom=0;" vertex="1" parent="1">
          <mxGeometry x="480" y="660" width="260" height="106.8" as="geometry" />
        </mxCell>
        <mxCell id="TfMtk5dUdcsSxjfKriaZ-20" value="- percentage: Real" style="text;strokeColor=none;fillColor=none;align=left;verticalAlign=top;spacingLeft=4;spacingRight=4;overflow=hidden;rotatable=0;points=[[0,0.5],[1,0.5]];portConstraint=eastwest;" vertex="1" parent="TfMtk5dUdcsSxjfKriaZ-19">
          <mxGeometry y="36.8" width="260" height="23.2" as="geometry" />
        </mxCell>
        <mxCell id="TfMtk5dUdcsSxjfKriaZ-21" style="line;strokeWidth=1;fillColor=none;align=left;verticalAlign=middle;spacingTop=-1;spacingLeft=3;spacingRight=3;rotatable=0;labelPosition=right;points=[];portConstraint=eastwest;strokeColor=inherit;" vertex="1" parent="TfMtk5dUdcsSxjfKriaZ-19">
          <mxGeometry y="60" width="260" height="8" as="geometry" />
        </mxCell>
        <mxCell id="TfMtk5dUdcsSxjfKriaZ-22" value="+ CalculateDiscount(totalAmount: Real): Real&#xa;+ GetDescription(): String" style="text;strokeColor=none;fillColor=none;align=left;verticalAlign=top;spacingLeft=4;spacingRight=4;overflow=hidden;rotatable=0;points=[[0,0.5],[1,0.5]];portConstraint=eastwest;" vertex="1" parent="TfMtk5dUdcsSxjfKriaZ-19">
          <mxGeometry y="68" width="260" height="38.8" as="geometry" />
        </mxCell>
        <mxCell id="TfMtk5dUdcsSxjfKriaZ-23" value="ShoppingCart" style="swimlane;fontStyle=1;align=center;verticalAlign=top;childLayout=stackLayout;horizontal=1;startSize=36.8;horizontalStack=0;resizeParent=1;resizeParentMax=0;resizeLast=0;collapsible=0;marginBottom=0;" vertex="1" parent="1">
          <mxGeometry x="98.5" y="480" width="310" height="180" as="geometry" />
        </mxCell>
        <mxCell id="TfMtk5dUdcsSxjfKriaZ-24" value="- discountStrategy: IDiscountStrategy&#xa;- items: String[*]" style="text;strokeColor=none;fillColor=none;align=left;verticalAlign=top;spacingLeft=4;spacingRight=4;overflow=hidden;rotatable=0;points=[[0,0.5],[1,0.5]];portConstraint=eastwest;" vertex="1" parent="TfMtk5dUdcsSxjfKriaZ-23">
          <mxGeometry y="36.8" width="310" height="37" as="geometry" />
        </mxCell>
        <mxCell id="TfMtk5dUdcsSxjfKriaZ-25" style="line;strokeWidth=1;fillColor=none;align=left;verticalAlign=middle;spacingTop=-1;spacingLeft=3;spacingRight=3;rotatable=0;labelPosition=right;points=[];portConstraint=eastwest;strokeColor=inherit;" vertex="1" parent="TfMtk5dUdcsSxjfKriaZ-23">
          <mxGeometry y="73.8" width="310" height="8" as="geometry" />
        </mxCell>
        <mxCell id="TfMtk5dUdcsSxjfKriaZ-26" value="+ AddItem(item: Item)&#xa;+ GetTotalAmount(): Real&#xa;+ SetDiscountStrategy(strategy: IDiscountStrategy)&#xa;+ GetFinalTotal(): Real&#xa;+ GetDiscountDescription(): String&#xa;+ DisplayCart()" style="text;strokeColor=none;fillColor=none;align=left;verticalAlign=top;spacingLeft=4;spacingRight=4;overflow=hidden;rotatable=0;points=[[0,0.5],[1,0.5]];portConstraint=eastwest;" vertex="1" parent="TfMtk5dUdcsSxjfKriaZ-23">
          <mxGeometry y="81.8" width="310" height="98.2" as="geometry" />
        </mxCell>
        <mxCell id="TfMtk5dUdcsSxjfKriaZ-27" value="" style="endArrow=diamondThin;endFill=1;endSize=24;html=1;rounded=0;exitX=0.499;exitY=0.985;exitDx=0;exitDy=0;exitPerimeter=0;entryX=0.5;entryY=0;entryDx=0;entryDy=0;" edge="1" parent="1" source="PqRrqZSPvnDs5z7jwxE0-24" target="TfMtk5dUdcsSxjfKriaZ-23">
          <mxGeometry width="160" relative="1" as="geometry">
            <mxPoint x="310" y="530" as="sourcePoint" />
            <mxPoint x="470" y="530" as="targetPoint" />
          </mxGeometry>
        </mxCell>
        <mxCell id="TfMtk5dUdcsSxjfKriaZ-263" value="*" style="edgeLabel;html=1;align=center;verticalAlign=middle;resizable=0;points=[];" vertex="1" connectable="0" parent="TfMtk5dUdcsSxjfKriaZ-27">
          <mxGeometry x="-0.7226" y="2" relative="1" as="geometry">
            <mxPoint x="5" as="offset" />
          </mxGeometry>
        </mxCell>
        <mxCell id="TfMtk5dUdcsSxjfKriaZ-264" value="1" style="edgeLabel;html=1;align=center;verticalAlign=middle;resizable=0;points=[];" vertex="1" connectable="0" parent="TfMtk5dUdcsSxjfKriaZ-27">
          <mxGeometry x="0.2565" y="1" relative="1" as="geometry">
            <mxPoint x="6" as="offset" />
          </mxGeometry>
        </mxCell>
        <mxCell id="TfMtk5dUdcsSxjfKriaZ-28" value="" style="endArrow=none;html=1;rounded=0;entryX=0;entryY=0.5;entryDx=0;entryDy=0;exitX=1.005;exitY=0.165;exitDx=0;exitDy=0;exitPerimeter=0;" edge="1" parent="1" source="TfMtk5dUdcsSxjfKriaZ-26" target="TfMtk5dUdcsSxjfKriaZ-7">
          <mxGeometry width="50" height="50" relative="1" as="geometry">
            <mxPoint x="430" y="600" as="sourcePoint" />
            <mxPoint x="560" y="430" as="targetPoint" />
          </mxGeometry>
        </mxCell>
        <mxCell id="TfMtk5dUdcsSxjfKriaZ-29" value="" style="endArrow=block;dashed=1;endFill=0;endSize=12;html=1;rounded=0;exitX=0;exitY=0.5;exitDx=0;exitDy=0;entryX=1;entryY=0.5;entryDx=0;entryDy=0;" edge="1" parent="1" source="TfMtk5dUdcsSxjfKriaZ-12" target="TfMtk5dUdcsSxjfKriaZ-7">
          <mxGeometry width="160" relative="1" as="geometry">
            <mxPoint x="590" y="660" as="sourcePoint" />
            <mxPoint x="640" y="520" as="targetPoint" />
          </mxGeometry>
        </mxCell>
        <mxCell id="TfMtk5dUdcsSxjfKriaZ-30" value="" style="endArrow=block;dashed=1;endFill=0;endSize=12;html=1;rounded=0;entryX=0.5;entryY=0;entryDx=0;entryDy=0;exitX=0.496;exitY=1.025;exitDx=0;exitDy=0;exitPerimeter=0;" edge="1" parent="1" source="TfMtk5dUdcsSxjfKriaZ-18" target="TfMtk5dUdcsSxjfKriaZ-7">
          <mxGeometry width="160" relative="1" as="geometry">
            <mxPoint x="590" y="480" as="sourcePoint" />
            <mxPoint x="707" y="588" as="targetPoint" />
          </mxGeometry>
        </mxCell>
        <mxCell id="TfMtk5dUdcsSxjfKriaZ-31" value="" style="endArrow=block;dashed=1;endFill=0;endSize=12;html=1;rounded=0;entryX=0.5;entryY=1.027;entryDx=0;entryDy=0;exitX=0.5;exitY=0;exitDx=0;exitDy=0;entryPerimeter=0;" edge="1" parent="1" source="TfMtk5dUdcsSxjfKriaZ-19" target="TfMtk5dUdcsSxjfKriaZ-10">
          <mxGeometry width="160" relative="1" as="geometry">
            <mxPoint x="593" y="491" as="sourcePoint" />
            <mxPoint x="593" y="550" as="targetPoint" />
          </mxGeometry>
        </mxCell>
      </root>
    </mxGraphModel>
  </diagram>
</mxfile>
